<mxfile host="app.diagrams.net" modified="2024-06-19T12:08:41.847Z" agent="Mozilla/5.0 (Windows NT 10.0; Win64; x64) AppleWebKit/537.36 (KHTML, like Gecko) Chrome/126.0.0.0 Safari/537.36" etag="eoRdSRWUAMw6EstbRmlh" version="24.5.5" type="device">
  <diagram name="Page-1" id="xuOxOUNOnT8DjQiufH1G">
    <mxGraphModel dx="2736" dy="1104" grid="1" gridSize="10" guides="1" tooltips="1" connect="1" arrows="1" fold="1" page="1" pageScale="1" pageWidth="827" pageHeight="1169" math="0" shadow="0">
      <root>
        <mxCell id="0" />
        <mxCell id="1" parent="0" />
        <mxCell id="PijFpGKjtn4gk_GRMd0J-12" style="edgeStyle=orthogonalEdgeStyle;rounded=0;orthogonalLoop=1;jettySize=auto;html=1;" parent="1" source="PijFpGKjtn4gk_GRMd0J-1" target="PijFpGKjtn4gk_GRMd0J-4" edge="1">
          <mxGeometry relative="1" as="geometry" />
        </mxCell>
        <mxCell id="PijFpGKjtn4gk_GRMd0J-1" value="&lt;font style=&quot;font-size: 20px;&quot;&gt;Nadzor vozila u stvarnom vremenu&lt;/font&gt;" style="rounded=0;whiteSpace=wrap;html=1;" parent="1" vertex="1">
          <mxGeometry x="100" y="70" width="150" height="90" as="geometry" />
        </mxCell>
        <mxCell id="PijFpGKjtn4gk_GRMd0J-15" style="edgeStyle=orthogonalEdgeStyle;rounded=0;orthogonalLoop=1;jettySize=auto;html=1;entryX=0.5;entryY=0;entryDx=0;entryDy=0;" parent="1" source="PijFpGKjtn4gk_GRMd0J-3" target="PijFpGKjtn4gk_GRMd0J-5" edge="1">
          <mxGeometry relative="1" as="geometry" />
        </mxCell>
        <mxCell id="PijFpGKjtn4gk_GRMd0J-3" value="&lt;span style=&quot;font-size: 18px;&quot;&gt;D3: Podaci o nadzoru&lt;/span&gt;" style="swimlane;fontStyle=0;childLayout=stackLayout;horizontal=1;startSize=50;horizontalStack=0;resizeParent=1;resizeParentMax=0;resizeLast=0;collapsible=1;marginBottom=0;whiteSpace=wrap;html=1;" parent="1" vertex="1">
          <mxGeometry x="660" y="80" width="140" height="130" as="geometry" />
        </mxCell>
        <mxCell id="PijFpGKjtn4gk_GRMd0J-4" value="&lt;font style=&quot;font-size: 19px;&quot;&gt;Podaci o nadzoru vozila&lt;/font&gt;" style="text;strokeColor=none;fillColor=none;align=left;verticalAlign=middle;spacingLeft=4;spacingRight=4;overflow=hidden;points=[[0,0.5],[1,0.5]];portConstraint=eastwest;rotatable=0;whiteSpace=wrap;html=1;" parent="PijFpGKjtn4gk_GRMd0J-3" vertex="1">
          <mxGeometry y="50" width="140" height="80" as="geometry" />
        </mxCell>
        <mxCell id="PijFpGKjtn4gk_GRMd0J-16" style="edgeStyle=orthogonalEdgeStyle;rounded=0;orthogonalLoop=1;jettySize=auto;html=1;entryX=1.008;entryY=0.231;entryDx=0;entryDy=0;entryPerimeter=0;" parent="1" source="PijFpGKjtn4gk_GRMd0J-5" target="PijFpGKjtn4gk_GRMd0J-8" edge="1">
          <mxGeometry relative="1" as="geometry">
            <mxPoint x="310" y="555" as="targetPoint" />
          </mxGeometry>
        </mxCell>
        <mxCell id="PijFpGKjtn4gk_GRMd0J-5" value="&lt;span style=&quot;font-size: 18px;&quot;&gt;P3.1: Prikupljanje podataka&lt;/span&gt;" style="swimlane;fontStyle=0;childLayout=stackLayout;horizontal=1;startSize=70;horizontalStack=0;resizeParent=1;resizeParentMax=0;resizeLast=0;collapsible=1;marginBottom=0;whiteSpace=wrap;html=1;" parent="1" vertex="1">
          <mxGeometry x="610" y="450" width="190" height="210" as="geometry" />
        </mxCell>
        <mxCell id="PijFpGKjtn4gk_GRMd0J-6" value="&lt;font style=&quot;font-size: 19px;&quot;&gt;Proces prikupljanja podataka o nadzoru vozila u stvarnom vremenu&lt;/font&gt;" style="text;strokeColor=none;fillColor=none;align=left;verticalAlign=middle;spacingLeft=4;spacingRight=4;overflow=hidden;points=[[0,0.5],[1,0.5]];portConstraint=eastwest;rotatable=0;whiteSpace=wrap;html=1;" parent="PijFpGKjtn4gk_GRMd0J-5" vertex="1">
          <mxGeometry y="70" width="190" height="140" as="geometry" />
        </mxCell>
        <mxCell id="PijFpGKjtn4gk_GRMd0J-17" style="edgeStyle=orthogonalEdgeStyle;rounded=0;orthogonalLoop=1;jettySize=auto;html=1;entryX=0.5;entryY=0;entryDx=0;entryDy=0;" parent="1" source="PijFpGKjtn4gk_GRMd0J-7" target="PijFpGKjtn4gk_GRMd0J-9" edge="1">
          <mxGeometry relative="1" as="geometry" />
        </mxCell>
        <mxCell id="PijFpGKjtn4gk_GRMd0J-7" value="&lt;font style=&quot;font-size: 18px;&quot;&gt;P3.2:&amp;nbsp;Praćenje lokacije vozila u stvarnom vremenu&lt;/font&gt;" style="swimlane;fontStyle=0;childLayout=stackLayout;horizontal=1;startSize=80;horizontalStack=0;resizeParent=1;resizeParentMax=0;resizeLast=0;collapsible=1;marginBottom=0;whiteSpace=wrap;html=1;" parent="1" vertex="1">
          <mxGeometry x="80" y="440" width="200" height="220" as="geometry" />
        </mxCell>
        <mxCell id="PijFpGKjtn4gk_GRMd0J-8" value="&lt;font style=&quot;font-size: 19px;&quot;&gt;Praćenje lokacije vozila u stvarnom vremenu&lt;/font&gt;" style="text;strokeColor=none;fillColor=none;align=left;verticalAlign=middle;spacingLeft=4;spacingRight=4;overflow=hidden;points=[[0,0.5],[1,0.5]];portConstraint=eastwest;rotatable=0;whiteSpace=wrap;html=1;" parent="PijFpGKjtn4gk_GRMd0J-7" vertex="1">
          <mxGeometry y="80" width="200" height="140" as="geometry" />
        </mxCell>
        <mxCell id="PijFpGKjtn4gk_GRMd0J-9" value="&lt;span style=&quot;font-size: 18px;&quot;&gt;P3.3 : Slanje infromacija korisnicima&lt;/span&gt;" style="swimlane;fontStyle=0;childLayout=stackLayout;horizontal=1;startSize=80;horizontalStack=0;resizeParent=1;resizeParentMax=0;resizeLast=0;collapsible=1;marginBottom=0;whiteSpace=wrap;html=1;" parent="1" vertex="1">
          <mxGeometry x="80" y="870" width="200" height="220" as="geometry" />
        </mxCell>
        <mxCell id="PijFpGKjtn4gk_GRMd0J-10" value="&lt;font style=&quot;font-size: 19px;&quot;&gt;Slanje informacija korisnicima o statusu vozila u stvarnom vremenu&lt;/font&gt;" style="text;strokeColor=none;fillColor=none;align=left;verticalAlign=middle;spacingLeft=4;spacingRight=4;overflow=hidden;points=[[0,0.5],[1,0.5]];portConstraint=eastwest;rotatable=0;whiteSpace=wrap;html=1;" parent="PijFpGKjtn4gk_GRMd0J-9" vertex="1">
          <mxGeometry y="80" width="200" height="140" as="geometry" />
        </mxCell>
        <mxCell id="PijFpGKjtn4gk_GRMd0J-18" value="&lt;font style=&quot;font-size: 21px;&quot;&gt;Podaci o nadzoru&lt;/font&gt;" style="text;html=1;align=center;verticalAlign=middle;whiteSpace=wrap;rounded=0;" parent="1" vertex="1">
          <mxGeometry x="590" y="320" width="100" height="30" as="geometry" />
        </mxCell>
        <mxCell id="PijFpGKjtn4gk_GRMd0J-19" value="&lt;font style=&quot;font-size: 19px;&quot;&gt;Prikupljanje podataka&lt;/font&gt;" style="text;html=1;align=center;verticalAlign=middle;whiteSpace=wrap;rounded=0;" parent="1" vertex="1">
          <mxGeometry x="430" y="480" width="60" height="30" as="geometry" />
        </mxCell>
        <mxCell id="PijFpGKjtn4gk_GRMd0J-20" value="&lt;font style=&quot;font-size: 21px;&quot;&gt;Nadzor vozila&lt;/font&gt;" style="text;html=1;align=center;verticalAlign=middle;whiteSpace=wrap;rounded=0;" parent="1" vertex="1">
          <mxGeometry x="200" y="750" width="100" height="30" as="geometry" />
        </mxCell>
        <mxCell id="PijFpGKjtn4gk_GRMd0J-22" value="&lt;span style=&quot;font-size: 21px;&quot;&gt;Generiranje infromacija&lt;/span&gt;" style="text;html=1;align=center;verticalAlign=middle;whiteSpace=wrap;rounded=0;" parent="1" vertex="1">
          <mxGeometry x="390" y="70" width="100" height="30" as="geometry" />
        </mxCell>
        <mxCell id="PijFpGKjtn4gk_GRMd0J-23" value="&lt;font style=&quot;font-size: 21px;&quot;&gt;Označava da proces nadzora vozila koristi podatke o nadzoru.&lt;/font&gt;" style="text;html=1;align=center;verticalAlign=middle;whiteSpace=wrap;rounded=0;" parent="1" vertex="1">
          <mxGeometry x="290" y="190" width="230" height="30" as="geometry" />
        </mxCell>
        <mxCell id="PijFpGKjtn4gk_GRMd0J-26" value="&lt;font style=&quot;font-size: 19px;&quot;&gt;Označava aktivnost prikupljanja podataka o nadzoru vozila u stvarnom vremenu.&lt;/font&gt;" style="text;html=1;align=center;verticalAlign=middle;whiteSpace=wrap;rounded=0;" parent="1" vertex="1">
          <mxGeometry x="780" y="310" width="190" height="30" as="geometry" />
        </mxCell>
        <mxCell id="PijFpGKjtn4gk_GRMd0J-28" value="&lt;font style=&quot;font-size: 20px;&quot;&gt;Označava proces nadzora vozila u stvarnom vremenu.&lt;/font&gt;" style="text;html=1;align=center;verticalAlign=middle;whiteSpace=wrap;rounded=0;" parent="1" vertex="1">
          <mxGeometry x="370" y="585" width="200" height="30" as="geometry" />
        </mxCell>
        <mxCell id="PijFpGKjtn4gk_GRMd0J-29" value="&lt;font style=&quot;font-size: 19px;&quot;&gt;Označava aktivnost slanja informacija korisnicima o statusu vozila u stvarnom vremenu.&lt;/font&gt;" style="text;html=1;align=center;verticalAlign=middle;whiteSpace=wrap;rounded=0;" parent="1" vertex="1">
          <mxGeometry x="-180" y="740" width="260" height="30" as="geometry" />
        </mxCell>
      </root>
    </mxGraphModel>
  </diagram>
</mxfile>
